<svg width="16" height="15" viewBox="0 0 16 15" fill="none" xmlns="http://www.w3.org/2000/svg">
<path d="M4.50666 3.18275L3.30666 1.98942L2.36666 2.92942L3.55999 4.12275L4.50666 3.18275ZM2.66666 6.95609H0.666656V8.28942H2.66666V6.95609ZM8.66666 0.322754H7.33332V2.28942H8.66666V0.322754ZM13.6333 2.92942L12.6933 1.98942L11.5 3.18275L12.44 4.12275L13.6333 2.92942ZM11.4933 12.0628L12.6867 13.2628L13.6267 12.3228L12.4267 11.1294L11.4933 12.0628ZM13.3333 6.95609V8.28942H15.3333V6.95609H13.3333ZM7.99999 3.62275C5.79332 3.62275 3.99999 5.41609 3.99999 7.62275C3.99999 9.82942 5.79332 11.6228 7.99999 11.6228C10.2067 11.6228 12 9.82942 12 7.62275C12 5.41609 10.2067 3.62275 7.99999 3.62275ZM7.33332 14.9228H8.66666V12.9561H7.33332V14.9228ZM2.36666 12.3161L3.30666 13.2561L4.49999 12.0561L3.55999 11.1161L2.36666 12.3161Z" fill="white"/>
</svg>
